<svg width="1440" height="325" viewBox="0 0 1440 325" fill="none" xmlns="http://www.w3.org/2000/svg">
<g clip-path="url(#clip0_420_871)" filter="url(#filter0_d_420_871)">
<rect width="1368" height="181" transform="translate(36 72)" fill="#141C33" fill-opacity="0.3"/>
<path d="M229.632 101.75H238.452L252.592 139.83C253.082 141.02 253.922 141.79 255.182 141.79C256.582 141.79 257.632 140.74 257.632 139.13V111.2C257.632 105.04 261.132 100.91 268.062 100.91C274.362 100.91 277.442 104.27 279.262 109.66L290.742 139.83C291.162 141.02 292.142 141.79 293.332 141.79C294.732 141.79 295.712 140.74 295.712 139.13V101.75H304.042V139.48C304.042 145.71 300.542 149.84 293.542 149.84C287.242 149.84 284.232 146.48 282.412 141.09L270.932 110.92C270.512 109.73 269.532 108.89 268.272 108.89C266.872 108.89 265.892 109.94 265.892 111.62V139.48C265.892 145.71 262.392 149.84 255.392 149.84C249.092 149.84 246.082 146.48 244.262 141.09L229.632 101.75ZM329.528 101.75H353.188V110.01H329.528C324.558 110.01 322.388 112.32 322.388 115.96C322.388 119.81 324.838 121.56 329.598 121.56H352.838V129.05H329.388C324.628 129.05 322.178 130.94 322.178 134.79C322.178 138.5 324.488 140.74 329.318 140.74H353.258V149H329.318C318.118 149 313.568 143.47 313.568 136.12C313.568 130.73 316.018 127.09 320.358 125.27C315.948 123.45 313.708 119.81 313.708 114.63C313.708 107.07 318.398 101.75 329.528 101.75ZM363.503 101.75H371.763V132.62C371.763 137.17 374.003 140.74 381.423 140.74H399.763V149H380.933C368.403 149 363.503 142.14 363.503 132.69V101.75ZM425.77 101.75H444.04V110.01H425.77C416.67 110.01 412.68 114.56 412.68 125.41C412.68 136.19 416.6 140.74 425.77 140.74H444.04V149H425.77C411.98 149 404.42 141.23 404.42 125.41C404.42 109.52 412.05 101.75 425.77 101.75ZM472.802 101.75H479.242C492.962 101.75 500.592 109.59 500.592 125.48C500.592 141.3 493.032 149 479.242 149H472.802C459.012 149 451.452 141.3 451.452 125.48C451.452 109.59 459.082 101.75 472.802 101.75ZM479.242 110.01H472.802C463.702 110.01 459.712 114.63 459.712 125.48C459.712 136.26 463.632 140.74 472.802 140.74H479.242C488.342 140.74 492.262 136.26 492.262 125.41C492.262 114.63 488.342 110.01 479.242 110.01ZM526.166 110.92L512.026 149H503.206L517.836 109.66C519.656 104.27 522.666 100.91 528.966 100.91C535.966 100.91 539.466 105.04 539.466 111.2V139.13C539.466 140.74 540.446 141.79 541.846 141.79C543.106 141.79 544.086 141.02 544.506 139.83L555.986 109.66C557.806 104.27 560.816 100.91 567.116 100.91C574.116 100.91 577.616 105.04 577.616 111.2V149H569.286V111.62C569.286 109.94 568.306 108.89 566.906 108.89C565.716 108.89 564.736 109.73 564.316 110.92L552.836 141.09C551.016 146.48 547.936 149.84 541.636 149.84C534.706 149.84 531.206 145.71 531.206 139.48V111.62C531.206 109.94 530.156 108.89 528.756 108.89C527.496 108.89 526.656 109.73 526.166 110.92ZM603.102 101.75H626.762V110.01H603.102C598.132 110.01 595.962 112.32 595.962 115.96C595.962 119.81 598.412 121.56 603.172 121.56H626.412V129.05H602.962C598.202 129.05 595.752 130.94 595.752 134.79C595.752 138.5 598.062 140.74 602.892 140.74H626.832V149H602.892C591.692 149 587.142 143.47 587.142 136.12C587.142 130.73 589.592 127.09 593.932 125.27C589.522 123.45 587.282 119.81 587.282 114.63C587.282 107.07 591.972 101.75 603.102 101.75ZM652.519 101.75H688.429V110.01H674.639V149H666.309V110.01H652.519V101.75ZM714.452 101.75H720.892C734.612 101.75 742.242 109.59 742.242 125.48C742.242 141.3 734.682 149 720.892 149H714.452C700.662 149 693.102 141.3 693.102 125.48C693.102 109.59 700.732 101.75 714.452 101.75ZM720.892 110.01H714.452C705.352 110.01 701.362 114.63 701.362 125.48C701.362 136.26 705.282 140.74 714.452 140.74H720.892C729.992 140.74 733.912 136.26 733.912 125.41C733.912 114.63 729.992 110.01 720.892 110.01ZM790.333 110.99L775.353 149H766.253L782.843 107C784.593 102.59 787.813 100.91 792.783 100.91C797.683 100.91 800.903 102.59 802.583 107L818.543 149H809.373L795.023 110.99C794.603 109.87 793.833 109.38 792.713 109.38C791.593 109.38 790.823 109.87 790.333 110.99ZM838.085 101.75H862.025V110.01H837.805C833.535 110.01 831.645 112.32 831.645 115.61C831.645 118.48 833.115 121.21 838.645 121.21H849.705C862.585 121.21 865.595 128.35 865.595 135.14C865.595 143.12 861.325 149 850.545 149H824.225V140.74H850.825C855.305 140.74 857.335 138.29 857.335 134.86C857.335 131.78 855.725 128.98 849.915 128.98H838.925C826.325 128.98 823.385 121.91 823.385 115.33C823.385 107.49 827.585 101.75 838.085 101.75ZM869.013 101.75H904.923V110.01H891.133V149H882.803V110.01H869.013V101.75ZM925.173 101.75H950.793C961.433 101.75 965.983 108.33 965.983 115.89C965.983 121.77 963.183 128.07 955.973 130.1L966.963 149H957.793L947.013 130.73H934.693C933.923 130.73 933.503 131.08 933.503 131.92V149H925.243V130.31C925.243 124.99 927.483 122.82 932.663 122.82H951.073C955.763 122.82 957.653 119.6 957.653 116.24C957.653 112.88 955.623 110.01 951.073 110.01H925.173V101.75ZM993.859 101.75H1000.3C1014.02 101.75 1021.65 109.59 1021.65 125.48C1021.65 141.3 1014.09 149 1000.3 149H993.859C980.069 149 972.509 141.3 972.509 125.48C972.509 109.59 980.139 101.75 993.859 101.75ZM1000.3 110.01H993.859C984.759 110.01 980.769 114.63 980.769 125.48C980.769 136.26 984.689 140.74 993.859 140.74H1000.3C1009.4 140.74 1013.32 136.26 1013.32 125.41C1013.32 114.63 1009.4 110.01 1000.3 110.01ZM1026.33 101.75H1062.24V110.01H1048.45V149H1040.12V110.01H1026.33V101.75ZM1084.1 101.75H1107.76V110.01H1084.1C1079.13 110.01 1076.96 112.32 1076.96 115.96C1076.96 119.81 1079.41 121.56 1084.17 121.56H1107.41V129.05H1083.96C1079.2 129.05 1076.75 130.94 1076.75 134.79C1076.75 138.5 1079.06 140.74 1083.89 140.74H1107.83V149H1083.89C1072.69 149 1068.14 143.47 1068.14 136.12C1068.14 130.73 1070.59 127.09 1074.93 125.27C1070.52 123.45 1068.28 119.81 1068.28 114.63C1068.28 107.07 1072.97 101.75 1084.1 101.75ZM1138.17 101.75H1156.44V110.01H1138.17C1129.07 110.01 1125.08 114.56 1125.08 125.41C1125.08 136.19 1129 140.74 1138.17 140.74H1156.44V149H1138.17C1124.38 149 1116.82 141.23 1116.82 125.41C1116.82 109.52 1124.45 101.75 1138.17 101.75ZM1166.28 101.75H1174.54V121H1198.69V101.75H1207.02V149H1198.69V129.26H1174.54V149H1166.28V101.75Z" fill="#EFF5FA"/>
<path d="M290.053 179.25H296.353L306.453 206.45C306.803 207.3 307.403 207.85 308.303 207.85C309.303 207.85 310.053 207.1 310.053 205.95V186C310.053 181.6 312.553 178.65 317.503 178.65C322.003 178.65 324.203 181.05 325.503 184.9L333.703 206.45C334.003 207.3 334.703 207.85 335.553 207.85C336.553 207.85 337.253 207.1 337.253 205.95V179.25H343.203V206.2C343.203 210.65 340.703 213.6 335.703 213.6C331.203 213.6 329.053 211.2 327.753 207.35L319.553 185.8C319.253 184.95 318.553 184.35 317.653 184.35C316.653 184.35 315.953 185.1 315.953 186.3V206.2C315.953 210.65 313.453 213.6 308.453 213.6C303.953 213.6 301.803 211.2 300.503 207.35L290.053 179.25ZM350.057 175.15H355.357V186.6H364.657C373.557 186.6 377.957 190.9 377.957 198.15V213H372.607V198.15C372.607 194.1 370.157 191.7 364.657 191.7H355.357V213H350.057V175.15ZM393.058 186.6H401.608C407.858 186.6 410.508 189.6 410.508 194.7C410.508 199.55 408.058 202.3 401.558 202.3H389.008V204.2C389.008 206.3 390.158 207.85 393.058 207.85H409.208V213H393.058C386.458 213 383.858 209.3 383.858 204.3V195.3C383.858 190.3 386.458 186.6 393.058 186.6ZM389.008 195.35V198.15H401.408C404.258 198.15 405.308 196.95 405.308 195C405.308 193 404.158 191.7 401.558 191.7H393.058C390.158 191.7 389.008 193.3 389.008 195.35ZM423.126 186.6H433.976V191.7H424.676C422.326 191.7 421.276 192.8 421.276 195.1V213H415.976V194.3C415.976 189 417.926 186.6 423.126 186.6ZM446.82 186.6H455.37C461.62 186.6 464.27 189.6 464.27 194.7C464.27 199.55 461.82 202.3 455.32 202.3H442.77V204.2C442.77 206.3 443.92 207.85 446.82 207.85H462.97V213H446.82C440.22 213 437.62 209.3 437.62 204.3V195.3C437.62 190.3 440.22 186.6 446.82 186.6ZM442.77 195.35V198.15H455.17C458.02 198.15 459.07 196.95 459.07 195C459.07 193 457.92 191.7 455.32 191.7H446.82C443.92 191.7 442.77 193.3 442.77 195.35ZM616.644 186.6H632.494C639.094 186.6 641.694 190.3 641.694 195.3V207.7C641.694 211.5 640.694 213 636.244 213H623.894C617.644 213 615.044 209.95 615.044 204.95C615.044 200.15 617.444 197.35 623.944 197.35H636.494V195.35C636.494 193.3 635.344 191.7 632.444 191.7H616.644V186.6ZM635.044 207.85C636.094 207.85 636.494 207.45 636.494 206.5V201.55H624.044C621.244 201.55 620.244 202.7 620.244 204.65C620.244 206.6 621.294 207.85 623.944 207.85H635.044ZM651.888 186.6H662.788C671.738 186.6 676.088 190.85 676.088 198.15V213H670.738V198.15C670.738 194 668.338 191.7 662.788 191.7H654.138C653.688 191.7 653.488 191.95 653.488 192.45V213H648.188V190.7C648.188 187.6 649.238 186.6 651.888 186.6ZM704.389 175.15H709.739V201.7C709.739 209.3 706.339 213 700.039 213H692.739C685.689 213 681.289 208.7 681.289 199.8C681.289 190.9 685.689 186.6 692.739 186.6H704.389V175.15ZM698.489 207.85C702.739 207.85 704.389 205.95 704.389 201.45V191.7H693.239C688.689 191.7 686.639 194.1 686.639 199.8C686.639 205.5 688.689 207.85 693.239 207.85H698.489ZM1025.8 186.6H1052.95C1061.9 186.6 1066.3 190.85 1066.3 198.15V213H1060.95V198.15C1060.95 194 1058.55 191.7 1053 191.7H1046.8V213H1041.45V191.7H1028.05C1027.6 191.7 1027.4 191.95 1027.4 192.45V213H1022.1V190.7C1022.1 187.6 1023.15 186.6 1025.8 186.6ZM1081.36 186.6H1089.91C1096.16 186.6 1098.81 189.6 1098.81 194.7C1098.81 199.55 1096.36 202.3 1089.86 202.3H1077.31V204.2C1077.31 206.3 1078.46 207.85 1081.36 207.85H1097.51V213H1081.36C1074.76 213 1072.16 209.3 1072.16 204.3V195.3C1072.16 190.3 1074.76 186.6 1081.36 186.6ZM1077.31 195.35V198.15H1089.71C1092.56 198.15 1093.61 196.95 1093.61 195C1093.61 193 1092.46 191.7 1089.86 191.7H1081.36C1078.46 191.7 1077.31 193.3 1077.31 195.35ZM1112.98 186.6H1121.53C1127.78 186.6 1130.43 189.6 1130.43 194.7C1130.43 199.55 1127.98 202.3 1121.48 202.3H1108.93V204.2C1108.93 206.3 1110.08 207.85 1112.98 207.85H1129.13V213H1112.98C1106.38 213 1103.78 209.3 1103.78 204.3V195.3C1103.78 190.3 1106.38 186.6 1112.98 186.6ZM1108.93 195.35V198.15H1121.33C1124.18 198.15 1125.23 196.95 1125.23 195C1125.23 193 1124.08 191.7 1121.48 191.7H1112.98C1110.08 191.7 1108.93 193.3 1108.93 195.35ZM1133.3 186.6H1136.9V180.35H1142.25V186.6H1149.55V191.7H1142.25V204.2C1142.25 207.15 1143.3 208.15 1145.8 208.15H1149.45V213H1144.7C1139.25 213 1136.9 210.8 1136.9 203.9V191.7H1133.3V186.6Z" fill="#EFF5FA"/>
<path d="M479.767 179.25H505.417V185.15H495.567V213H489.617V185.15H479.767V179.25ZM516.867 186.6H525.417C531.667 186.6 534.317 189.6 534.317 194.7C534.317 199.55 531.867 202.3 525.367 202.3H512.817V204.2C512.817 206.3 513.967 207.85 516.867 207.85H533.017V213H516.867C510.267 213 507.667 209.3 507.667 204.3V195.3C507.667 190.3 510.267 186.6 516.867 186.6ZM512.817 195.35V198.15H525.217C528.067 198.15 529.117 196.95 529.117 195C529.117 193 527.967 191.7 525.367 191.7H516.867C513.967 191.7 512.817 193.3 512.817 195.35ZM550.034 186.6H563.634V191.7H550.534C545.934 191.7 543.934 194.1 543.934 199.8C543.934 205.5 545.934 207.85 550.534 207.85H563.634V213H550.034C542.984 213 538.584 208.7 538.584 199.8C538.584 190.9 542.984 186.6 550.034 186.6ZM568.912 175.15H574.212V186.6H583.512C592.412 186.6 596.812 190.9 596.812 198.15V213H591.462V198.15C591.462 194.1 589.012 191.7 583.512 191.7H574.212V213H568.912V175.15Z" fill="url(#paint0_linear_420_871)"/>
<path d="M729.685 186.6H745.535C752.135 186.6 754.735 190.3 754.735 195.3V207.7C754.735 211.5 753.735 213 749.285 213H736.935C730.685 213 728.085 209.95 728.085 204.95C728.085 200.15 730.485 197.35 736.985 197.35H749.535V195.35C749.535 193.3 748.385 191.7 745.485 191.7H729.685V186.6ZM748.085 207.85C749.135 207.85 749.535 207.45 749.535 206.5V201.55H737.085C734.285 201.55 733.285 202.7 733.285 204.65C733.285 206.6 734.335 207.85 736.985 207.85H748.085ZM768.579 186.6H783.229V191.7H768.629C766.179 191.7 765.179 192.7 765.179 194.7C765.179 196.55 765.979 197.55 768.929 197.55H775.129C782.429 197.55 784.279 200.9 784.279 205C784.279 209.7 781.829 213 775.629 213H760.279V207.85H775.629C778.079 207.85 779.079 207 779.079 204.95C779.079 202.85 777.979 202 775.329 202H769.079C761.779 202 759.979 198.35 759.979 194.3C759.979 189.55 762.429 186.6 768.579 186.6ZM786.876 186.6H790.476V180.35H795.826V186.6H803.126V191.7H795.826V204.2C795.826 207.15 796.876 208.15 799.376 208.15H803.026V213H798.276C792.826 213 790.476 210.8 790.476 203.9V191.7H786.876V186.6ZM814.376 186.6H825.226V191.7H815.926C813.576 191.7 812.526 192.8 812.526 195.1V213H807.226V194.3C807.226 189 809.176 186.6 814.376 186.6ZM839.62 186.6H845.17C852.17 186.6 856.62 190.9 856.62 199.8C856.62 208.7 852.17 213 845.17 213H839.62C832.57 213 828.17 208.7 828.17 199.8C828.17 190.9 832.57 186.6 839.62 186.6ZM844.67 191.7H840.12C835.52 191.7 833.52 194.1 833.52 199.8C833.52 205.5 835.52 207.85 840.12 207.85H844.67C849.22 207.85 851.27 205.5 851.27 199.8C851.27 194.1 849.22 191.7 844.67 191.7ZM865.665 186.6H876.565C885.515 186.6 889.865 190.85 889.865 198.15V213H884.515V198.15C884.515 194 882.115 191.7 876.565 191.7H867.915C867.465 191.7 867.265 191.95 867.265 192.45V213H861.965V190.7C861.965 187.6 863.015 186.6 865.665 186.6ZM906.517 186.6H912.067C919.067 186.6 923.517 190.9 923.517 199.8C923.517 208.7 919.067 213 912.067 213H906.517C899.467 213 895.067 208.7 895.067 199.8C895.067 190.9 899.467 186.6 906.517 186.6ZM911.567 191.7H907.017C902.417 191.7 900.417 194.1 900.417 199.8C900.417 205.5 902.417 207.85 907.017 207.85H911.567C916.117 207.85 918.167 205.5 918.167 199.8C918.167 194.1 916.117 191.7 911.567 191.7ZM932.562 186.6H959.712C968.662 186.6 973.062 190.85 973.062 198.15V213H967.712V198.15C967.712 194 965.312 191.7 959.762 191.7H953.562V213H948.212V191.7H934.812C934.362 191.7 934.162 191.95 934.162 192.45V213H928.862V190.7C928.862 187.6 929.912 186.6 932.562 186.6ZM1000.35 186.6H1006L990.099 223.6H984.399L989.349 212.05C986.349 212.05 985.299 211.1 984.399 208.8L975.549 186.6H981.149L989.099 206.25C989.449 207.2 989.699 207.35 990.699 207.35H991.399L1000.35 186.6Z" fill="url(#paint1_linear_420_871)"/>
<path d="M239 253L1201 253" stroke="#EFF5FA" stroke-width="3" stroke-linecap="round"/>
<path d="M239 72L1201 72" stroke="#EFF5FA" stroke-width="3" stroke-linecap="round"/>
</g>
<defs>
<filter id="filter0_d_420_871" x="-36" y="0" width="1512" height="325" filterUnits="userSpaceOnUse" color-interpolation-filters="sRGB">
<feFlood flood-opacity="0" result="BackgroundImageFix"/>
<feColorMatrix in="SourceAlpha" type="matrix" values="0 0 0 0 0 0 0 0 0 0 0 0 0 0 0 0 0 0 127 0" result="hardAlpha"/>
<feMorphology radius="32" operator="dilate" in="SourceAlpha" result="effect1_dropShadow_420_871"/>
<feOffset/>
<feGaussianBlur stdDeviation="20"/>
<feComposite in2="hardAlpha" operator="out"/>
<feColorMatrix type="matrix" values="0 0 0 0 0.0784314 0 0 0 0 0.109804 0 0 0 0 0.2 0 0 0 0.3 0"/>
<feBlend mode="normal" in2="BackgroundImageFix" result="effect1_dropShadow_420_871"/>
<feBlend mode="normal" in="SourceGraphic" in2="effect1_dropShadow_420_871" result="shape"/>
</filter>
<linearGradient id="paint0_linear_420_871" x1="289" y1="196.5" x2="1151" y2="196.5" gradientUnits="userSpaceOnUse">
<stop offset="0.0673077" stop-color="#8DC1FC"/>
<stop offset="0.514423" stop-color="#2F456F"/>
</linearGradient>
<linearGradient id="paint1_linear_420_871" x1="289" y1="196.5" x2="1151" y2="196.5" gradientUnits="userSpaceOnUse">
<stop offset="0.519231" stop-color="#8DC1FC"/>
<stop offset="1" stop-color="#2F456F"/>
</linearGradient>
<clipPath id="clip0_420_871">
<rect width="1368" height="181" fill="white" transform="translate(36 72)"/>
</clipPath>
</defs>
</svg>
